<svg width="89" height="84" viewBox="0 0 89 84" fill="none" xmlns="http://www.w3.org/2000/svg">
<path d="M2.94727 24.4384C0.435117 26.1231 -1.03728 29.6908 1.73824 33.9565C4.51376 38.2222 44.1664 67.0157 45.6205 67.8152C47.0746 68.6147 48.5293 68.7478 52.2282 65.9493C55.9298 63.1494 86.8533 41.2798 87.6512 40.622C88.921 39.576 89.238 37.0227 87.6512 35.8231C87.6512 35.8231 50.1886 62.2168 48.9619 63.2832C47.7353 64.3497 45.827 62.6169 46.1858 60.3509C46.5459 58.0849 46.8099 57.818 51.5682 54.3518C56.3265 50.8855 83.3053 31.6365 84.5294 30.7856C85.9155 29.822 85.9488 28.1189 83.6778 26.6122C80.5213 24.5182 46.4106 1.67903 45.2689 0.879538C44.1245 0.0800487 42.5417 -0.647599 40.1629 0.95204C37.784 2.55234 7.56246 21.3427 2.94727 24.4384Z" fill="white"/>
<path d="M45.6203 70.624C44.6662 70.0987 27.2681 57.5231 14.6309 47.7314V68.1471C14.6204 83.05 59.2202 91.0126 73.9964 72.6923V53.1796C64.9196 59.6361 54.3024 67.1894 52.2281 68.7574C48.5292 71.5566 47.0744 71.4235 45.6203 70.624Z" fill="white"/>
<path d="M64.5332 48.8992C64.696 48.9999 64.9235 49.1506 65.1953 49.363C65.7874 49.8258 66.5946 50.5764 67.4199 51.7126C68.9998 53.8876 70.6677 57.5047 71.0059 63.282L68.5234 62.6375L68.0889 62.5251L67.8877 62.9265L66.1758 66.3494C65.4777 60.5206 63.8783 56.9938 62.3496 54.8845C61.5051 53.7194 60.6864 52.994 60.0654 52.5554C59.9853 52.4988 59.909 52.4464 59.8359 52.3992L64.5332 48.8992Z" fill="white" stroke="#1C3141" stroke-width="1.10852"/>
</svg>
