<svg width="18" height="14" viewBox="0 0 18 14" fill="none" xmlns="http://www.w3.org/2000/svg">
<path d="M15.875 0.125H2.125C1.79348 0.125 1.47554 0.256696 1.24112 0.491116C1.0067 0.725537 0.875 1.04348 0.875 1.375V12.625C0.875 12.9565 1.0067 13.2745 1.24112 13.5089C1.47554 13.7433 1.79348 13.875 2.125 13.875H15.875C16.2065 13.875 16.5245 13.7433 16.7589 13.5089C16.9933 13.2745 17.125 12.9565 17.125 12.625V1.375C17.125 1.04348 16.9933 0.725537 16.7589 0.491116C16.5245 0.256696 16.2065 0.125 15.875 0.125ZM4 4.1875C4 4.35326 3.93415 4.51223 3.81694 4.62944C3.69973 4.74665 3.54076 4.8125 3.375 4.8125C3.20924 4.8125 3.05027 4.74665 2.93306 4.62944C2.81585 4.51223 2.75 4.35326 2.75 4.1875V3.25C2.75 3.08424 2.81585 2.92527 2.93306 2.80806C3.05027 2.69085 3.20924 2.625 3.375 2.625H9C9.16576 2.625 9.32473 2.69085 9.44194 2.80806C9.55915 2.92527 9.625 3.08424 9.625 3.25V4.1875C9.625 4.35326 9.55915 4.51223 9.44194 4.62944C9.32473 4.74665 9.16576 4.8125 9 4.8125C8.83424 4.8125 8.67527 4.74665 8.55806 4.62944C8.44085 4.51223 8.375 4.35326 8.375 4.1875V3.875H6.8125V7.625H7.125C7.29076 7.625 7.44973 7.69085 7.56694 7.80806C7.68415 7.92527 7.75 8.08424 7.75 8.25C7.75 8.41576 7.68415 8.57473 7.56694 8.69194C7.44973 8.80915 7.29076 8.875 7.125 8.875H5.25C5.08424 8.875 4.92527 8.80915 4.80806 8.69194C4.69085 8.57473 4.625 8.41576 4.625 8.25C4.625 8.08424 4.69085 7.92527 4.80806 7.80806C4.92527 7.69085 5.08424 7.625 5.25 7.625H5.5625V3.875H4V4.1875ZM14.625 11.375H5.25C5.08424 11.375 4.92527 11.3092 4.80806 11.1919C4.69085 11.0747 4.625 10.9158 4.625 10.75C4.625 10.5842 4.69085 10.4253 4.80806 10.3081C4.92527 10.1908 5.08424 10.125 5.25 10.125H14.625C14.7908 10.125 14.9497 10.1908 15.0669 10.3081C15.1842 10.4253 15.25 10.5842 15.25 10.75C15.25 10.9158 15.1842 11.0747 15.0669 11.1919C14.9497 11.3092 14.7908 11.375 14.625 11.375ZM14.625 8.875H9.625C9.45924 8.875 9.30027 8.80915 9.18306 8.69194C9.06585 8.57473 9 8.41576 9 8.25C9 8.08424 9.06585 7.92527 9.18306 7.80806C9.30027 7.69085 9.45924 7.625 9.625 7.625H14.625C14.7908 7.625 14.9497 7.69085 15.0669 7.80806C15.1842 7.92527 15.25 8.08424 15.25 8.25C15.25 8.41576 15.1842 8.57473 15.0669 8.69194C14.9497 8.80915 14.7908 8.875 14.625 8.875ZM14.625 6.375H10.875C10.7092 6.375 10.5503 6.30915 10.4331 6.19194C10.3158 6.07473 10.25 5.91576 10.25 5.75C10.25 5.58424 10.3158 5.42527 10.4331 5.30806C10.5503 5.19085 10.7092 5.125 10.875 5.125H14.625C14.7908 5.125 14.9497 5.19085 15.0669 5.30806C15.1842 5.42527 15.25 5.58424 15.25 5.75C15.25 5.91576 15.1842 6.07473 15.0669 6.19194C14.9497 6.30915 14.7908 6.375 14.625 6.375Z" fill="white"/>
</svg>
