<svg width="13" height="13" viewBox="0 0 13 13" fill="none" xmlns="http://www.w3.org/2000/svg">
<path d="M7.68142 8.27141C7.84872 8.27141 7.99388 8.2099 8.11689 8.08688C8.23991 7.96387 8.30142 7.81871 8.30142 7.6514C8.30142 7.4841 8.23991 7.33894 8.11689 7.21593C7.99388 7.09291 7.84872 7.0314 7.68142 7.0314C7.51412 7.0314 7.36896 7.09291 7.24594 7.21593C7.12293 7.33894 7.06142 7.4841 7.06142 7.6514C7.06142 7.81871 7.12293 7.96387 7.24594 8.08688C7.36896 8.2099 7.51412 8.27141 7.68142 8.27141ZM7.68142 6.38188C7.78967 6.38188 7.89054 6.34252 7.98404 6.26379C8.07753 6.18506 8.13412 6.08172 8.1538 5.95379C8.17348 5.83569 8.21531 5.72744 8.27927 5.62902C8.34324 5.53061 8.45888 5.39775 8.62618 5.23045C8.92142 4.93521 9.11824 4.69656 9.21665 4.5145C9.31507 4.33244 9.36427 4.11839 9.36427 3.87236C9.36427 3.4295 9.20927 3.06783 8.89927 2.78736C8.58927 2.50688 8.18332 2.36664 7.68142 2.36664C7.35666 2.36664 7.06142 2.44045 6.7957 2.58807C6.52999 2.73569 6.3184 2.94728 6.16094 3.22283C6.10189 3.32125 6.09697 3.42458 6.14618 3.53283C6.19539 3.64109 6.27904 3.71982 6.39713 3.76902C6.50539 3.81823 6.61118 3.82315 6.71451 3.78379C6.81785 3.74442 6.90396 3.67553 6.97285 3.57712C7.06142 3.44918 7.16475 3.35323 7.28285 3.28926C7.40094 3.22529 7.5338 3.19331 7.68142 3.19331C7.91761 3.19331 8.10951 3.25974 8.25713 3.3926C8.40475 3.52545 8.47856 3.70506 8.47856 3.93141C8.47856 4.06918 8.4392 4.19958 8.36046 4.3226C8.28173 4.44561 8.14396 4.60061 7.94713 4.7876C7.66173 5.03363 7.47967 5.22307 7.40094 5.35593C7.32221 5.48879 7.273 5.68315 7.25332 5.93902C7.24348 6.05712 7.28039 6.16045 7.36404 6.24902C7.44769 6.3376 7.55348 6.38188 7.68142 6.38188ZM4.13856 10.0428C3.8138 10.0428 3.53578 9.9272 3.30451 9.69593C3.07324 9.46466 2.95761 9.18664 2.95761 8.86188V1.77617C2.95761 1.45141 3.07324 1.17339 3.30451 0.94212C3.53578 0.71085 3.8138 0.595215 4.13856 0.595215H11.2243C11.549 0.595215 11.8271 0.71085 12.0583 0.94212C12.2896 1.17339 12.4052 1.45141 12.4052 1.77617V8.86188C12.4052 9.18664 12.2896 9.46466 12.0583 9.69593C11.8271 9.9272 11.549 10.0428 11.2243 10.0428H4.13856ZM1.77666 12.4047C1.45189 12.4047 1.17388 12.2891 0.942608 12.0578C0.711338 11.8266 0.595703 11.5485 0.595703 11.2238V3.5476C0.595703 3.38029 0.65229 3.24006 0.765465 3.12688C0.87864 3.01371 1.01888 2.95712 1.18618 2.95712C1.35348 2.95712 1.49372 3.01371 1.60689 3.12688C1.72007 3.24006 1.77666 3.38029 1.77666 3.5476V11.2238H9.45285C9.62015 11.2238 9.76039 11.2804 9.87356 11.3935C9.98673 11.5067 10.0433 11.647 10.0433 11.8143C10.0433 11.9816 9.98673 12.1218 9.87356 12.235C9.76039 12.3482 9.62015 12.4047 9.45285 12.4047H1.77666Z" fill="white"/>
</svg>
