<svg width="14" height="16" viewBox="0 0 14 16" fill="none" xmlns="http://www.w3.org/2000/svg">
<path d="M7.26767 3.06395C6.00226 3.06395 4.76526 3.43919 3.71311 4.14222C2.66096 4.84524 1.84091 5.84448 1.35665 7.01357C0.872401 8.18266 0.745699 9.46909 0.992568 10.7102C1.23944 11.9513 1.84879 13.0913 2.74357 13.9861C3.63836 14.8809 4.77838 15.4902 6.01948 15.7371C7.26058 15.984 8.54701 15.8573 9.7161 15.373C10.8852 14.8888 11.8844 14.0687 12.5874 13.0166C13.2905 11.9644 13.6657 10.7274 13.6657 9.462C13.6638 7.76573 12.9891 6.13949 11.7896 4.94004C10.5902 3.7406 8.96394 3.0659 7.26767 3.06395ZM10.3107 7.17336L7.64489 9.83921C7.59535 9.88875 7.53655 9.92805 7.47182 9.95485C7.4071 9.98166 7.33773 9.99546 7.26767 9.99546C7.19762 9.99546 7.12825 9.98166 7.06352 9.95485C6.9988 9.92805 6.93999 9.88875 6.89046 9.83921C6.84092 9.78968 6.80162 9.73087 6.77481 9.66615C6.748 9.60142 6.73421 9.53205 6.73421 9.462C6.73421 9.39194 6.748 9.32257 6.77481 9.25785C6.80162 9.19312 6.84092 9.13431 6.89046 9.08478L9.55631 6.41893C9.60584 6.36939 9.66465 6.3301 9.72937 6.30329C9.7941 6.27648 9.86347 6.26268 9.93352 6.26268C10.0036 6.26268 10.0729 6.27648 10.1377 6.30329C10.2024 6.3301 10.2612 6.36939 10.3107 6.41893C10.3603 6.46846 10.3996 6.52727 10.4264 6.592C10.4532 6.65672 10.467 6.72609 10.467 6.79615C10.467 6.8662 10.4532 6.93557 10.4264 7.00029C10.3996 7.06502 10.3603 7.12383 10.3107 7.17336ZM5.13499 1.46444C5.13499 1.32304 5.19117 1.18743 5.29115 1.08744C5.39114 0.987448 5.52676 0.931274 5.66816 0.931274H8.86718C9.00859 0.931274 9.1442 0.987448 9.24419 1.08744C9.34418 1.18743 9.40035 1.32304 9.40035 1.46444C9.40035 1.60585 9.34418 1.74146 9.24419 1.84145C9.1442 1.94144 9.00859 1.99761 8.86718 1.99761H5.66816C5.52676 1.99761 5.39114 1.94144 5.29115 1.84145C5.19117 1.74146 5.13499 1.60585 5.13499 1.46444Z" fill="white"/>
</svg>
